<svg width="64" height="64" viewBox="0 0 64 64" fill="none" xmlns="http://www.w3.org/2000/svg">
<rect width="64" height="64" fill="white"/>
<path d="M29.0002 39H20.8112L22.0745 42.2074C21.5711 43.132 20.5 43.5435 20.5 44C20.5 44.3628 20.3819 45.4222 20.8112 45.7032C21.2553 45.9724 21.2553 45.1218 22.7062 45.2038C22.7062 45.2038 21.9084 47.3094 21.4428 46.702C21.1529 46.3236 21.4428 45.4813 21.4428 45.4813L20.8112 45.0535C22.0696 44.878 21.0725 43.9865 21.4426 43.7056C22.1976 43.1437 19.8934 40.7206 20.8112 39C21.7291 37.2794 23.0002 21.5 23.0002 21.5L23.5673 19.5L34.826 41.1559C35.6699 42.7477 36.4323 43.7836 37.1133 44.2635C37.8091 44.7317 38.7716 44.5219 40.0003 44.5804L39.0002 44.9512L33.2745 47.3516V46.702C34.4736 46.6551 35.2805 46.4971 35.695 46.2279C36.1243 45.9587 33.4443 47.5876 33.4443 47.2014C33.4443 46.6863 30.8881 42.2678 30.2959 41.1559L29.0002 39ZM27.8532 36.433L22.7456 26.8118L21.4428 36.433H27.8532Z" fill="#858585"/>
<path d="M16.0002 48L16 47H17C18.3438 47 19.3127 46.7031 19.8752 45.8438C20.219 45.3281 20.3909 44.1719 20.3909 42.375V21.8438C20.3909 19.8594 20.1721 18.6172 19.7346 18.1172C19.1252 17.4297 18.219 17.0859 17.0158 17.0859H16.0002V16H29.0002C33.7502 16 37.1174 16.7578 39.5862 17.8359C42.0705 18.9141 44.0002 20.4844 45.5002 23C47.0159 25.5156 48.0002 28.7031 48.0002 32C48.0002 36.4219 46.6877 40.0312 44.0002 43C40.9846 46.3125 38.1719 48 32 48H16.0002ZM24.8909 45.7031C26.8752 46.1406 28.5393 46.3594 29.883 46.3594C33.508 46.3594 36.5159 45.0859 38.9065 42.5391C41.2971 39.9922 42.4924 36.5391 42.4924 32.1797C42.4924 27.7891 41.2971 24.3281 38.9065 21.7969C36.5159 19.2656 33.4455 18 29.6955 18C28.2893 18 26.6877 18.2266 24.8909 18.6797V45.7031Z" fill="black"/>
</svg>
